<svg width="96" height="96" viewBox="0 0 96 96" fill="none" xmlns="http://www.w3.org/2000/svg">
  <rect width="96" height="96" rx="28" fill="#AB9FF2"/>
  <path d="M24 58.5C24 39.7 37.9 25 55.1 25C70.4 25 82 36.6 82 51.8C82 63.4 75.1 72.3 66.9 72.3C61.8 72.3 58.1 69.8 56.5 65.8C53.7 70.1 49.8 72.3 45 72.3C40.2 72.3 36.9 69.9 35.6 65.8C33.5 69.8 30.4 72.3 26.8 72.3C25.1 72.3 24 71.2 24 69.5V58.5Z" fill="#2B1B57"/>
  <path d="M41.2 49.2C43.2 49.2 44.9 47.3 44.9 45C44.9 42.7 43.2 40.8 41.2 40.8C39.2 40.8 37.5 42.7 37.5 45C37.5 47.3 39.2 49.2 41.2 49.2Z" fill="#F7F4FF"/>
  <path d="M61.1 49.2C63.1 49.2 64.8 47.3 64.8 45C64.8 42.7 63.1 40.8 61.1 40.8C59.1 40.8 57.4 42.7 57.4 45C57.4 47.3 59.1 49.2 61.1 49.2Z" fill="#F7F4FF"/>
  <path d="M70.5 31.5C75.7 35.8 79 42.4 79 49.9C79 58.5 73.9 65.4 67.8 65.4C65 65.4 62.6 64.3 61.1 62.1" stroke="#F7F4FF" stroke-width="3.8" stroke-linecap="round"/>
</svg>
